<?xml version="1.0" encoding="utf-8"?>
<!-- Generator: Adobe Illustrator 23.1.0, SVG Export Plug-In . SVG Version: 6.00 Build 0)  -->
<svg version="1.1" id="Layer_1" xmlns="http://www.w3.org/2000/svg" xmlns:xlink="http://www.w3.org/1999/xlink" x="0px" y="0px"
	 viewBox="0 0 31.18 3.1" style="enable-background:new 0 0 31.18 3.1;" xml:space="preserve">
<g>
	<path d="M1.11,0C1.3,0,1.46,0.02,1.59,0.07c0.13,0.05,0.24,0.12,0.32,0.2c0.08,0.09,0.13,0.19,0.17,0.31
		C2.11,0.7,2.13,0.83,2.13,0.97c0,0.11-0.01,0.21-0.03,0.3C2.07,1.36,2.04,1.45,2,1.53C1.95,1.61,1.89,1.68,1.81,1.74
		C1.74,1.8,1.65,1.84,1.54,1.88L2.3,3.07H1.79L1.06,1.94H0.48v1.13H0V0H1.11z M1.08,1.55c0.1,0,0.19-0.01,0.27-0.04
		c0.07-0.03,0.13-0.07,0.18-0.12C1.57,1.33,1.6,1.27,1.62,1.2c0.02-0.07,0.03-0.14,0.03-0.23c0-0.08-0.01-0.16-0.03-0.23
		C1.6,0.67,1.57,0.61,1.52,0.56c-0.05-0.05-0.1-0.09-0.18-0.12C1.28,0.41,1.19,0.39,1.08,0.39h-0.6v1.15H1.08z"/>
	<path d="M2.94,2.15c0.03,0.18,0.09,0.32,0.19,0.42c0.1,0.1,0.24,0.15,0.41,0.15c0.14,0,0.25-0.03,0.35-0.09
		c0.1-0.06,0.17-0.14,0.23-0.23l0.42,0.16C4.46,2.72,4.33,2.86,4.16,2.95C3.99,3.05,3.78,3.1,3.54,3.1c-0.18,0-0.34-0.03-0.47-0.08
		C2.93,2.96,2.82,2.89,2.73,2.79c-0.09-0.1-0.16-0.22-0.21-0.36s-0.07-0.3-0.07-0.47s0.02-0.33,0.07-0.47s0.12-0.26,0.21-0.36
		c0.09-0.1,0.2-0.18,0.34-0.24C3.2,0.83,3.36,0.8,3.54,0.8c0.36,0,0.63,0.11,0.82,0.33C4.54,1.36,4.63,1.7,4.63,2.15H2.94z
		 M3.54,1.19c-0.18,0-0.31,0.05-0.41,0.15c-0.1,0.1-0.16,0.24-0.19,0.42h1.21c-0.03-0.2-0.1-0.34-0.21-0.43S3.7,1.19,3.54,1.19z"/>
	<path d="M6.41,2.91C6.33,2.96,6.22,3,6.11,3.04C5.99,3.07,5.87,3.09,5.73,3.09c-0.13,0-0.25-0.02-0.34-0.05
		C5.29,3,5.2,2.96,5.14,2.9C5.07,2.84,5.02,2.76,4.99,2.68S4.94,2.5,4.94,2.39c0-0.13,0.03-0.25,0.1-0.36
		c0.07-0.11,0.17-0.19,0.3-0.26C5.46,1.7,5.61,1.65,5.8,1.62C5.98,1.59,6.18,1.58,6.41,1.6c0-0.06-0.01-0.12-0.03-0.17
		C6.36,1.38,6.34,1.33,6.31,1.3C6.27,1.26,6.22,1.24,6.17,1.22C6.11,1.2,6.03,1.19,5.94,1.19c-0.16,0-0.29,0.02-0.4,0.06
		c-0.11,0.04-0.2,0.08-0.27,0.13L5.09,1.06C5.14,1.03,5.19,1,5.25,0.98c0.06-0.03,0.13-0.06,0.21-0.08
		c0.08-0.02,0.16-0.04,0.25-0.06c0.09-0.02,0.19-0.02,0.3-0.02c0.17,0,0.31,0.02,0.42,0.07c0.11,0.05,0.2,0.11,0.27,0.18
		c0.07,0.08,0.11,0.16,0.14,0.26c0.03,0.1,0.04,0.19,0.04,0.29v1.46H6.41V2.91z M5.8,2.7c0.04,0,0.08,0,0.13-0.01
		c0.05-0.01,0.1-0.02,0.16-0.04C6.14,2.63,6.2,2.61,6.25,2.59c0.06-0.02,0.11-0.06,0.16-0.09v-0.5c-0.14-0.02-0.27-0.02-0.39,0
		C5.9,2,5.79,2.02,5.7,2.06C5.62,2.1,5.54,2.14,5.49,2.2C5.44,2.26,5.42,2.32,5.42,2.39c0,0.04,0.01,0.08,0.02,0.11
		c0.01,0.04,0.03,0.07,0.06,0.1c0.03,0.03,0.07,0.05,0.12,0.07C5.66,2.69,5.72,2.7,5.8,2.7z"/>
	<path d="M8.38,2.71c0.06,0,0.12-0.01,0.18-0.03c0.06-0.02,0.11-0.04,0.16-0.07c0.05-0.03,0.09-0.06,0.13-0.1
		c0.04-0.04,0.07-0.08,0.09-0.13l0.4,0.14C9.27,2.7,9.15,2.84,8.98,2.94S8.62,3.1,8.37,3.1c-0.15,0-0.29-0.02-0.43-0.07
		S7.7,2.91,7.6,2.82C7.5,2.72,7.42,2.6,7.37,2.46C7.31,2.31,7.28,2.14,7.28,1.95c0-0.19,0.03-0.36,0.09-0.51
		C7.42,1.3,7.5,1.18,7.6,1.08c0.1-0.09,0.21-0.16,0.34-0.21C8.07,0.83,8.22,0.8,8.37,0.8c0.24,0,0.44,0.05,0.6,0.16
		c0.16,0.1,0.28,0.24,0.35,0.41L8.91,1.53c-0.05-0.09-0.11-0.17-0.2-0.23s-0.2-0.1-0.33-0.1c-0.19,0-0.34,0.06-0.45,0.19
		C7.82,1.52,7.76,1.7,7.76,1.95c0,0.25,0.06,0.44,0.17,0.57C8.04,2.64,8.19,2.71,8.38,2.71z"/>
	<path d="M9.56,0.89h0.35V0.15h0.48v0.73h0.73v0.39h-0.73v1.15c0,0.1,0.02,0.17,0.07,0.22c0.05,0.04,0.11,0.06,0.18,0.06
		c0.07,0,0.15-0.02,0.23-0.06c0.08-0.04,0.15-0.1,0.21-0.18l0.25,0.24c-0.05,0.08-0.1,0.14-0.16,0.19
		c-0.06,0.05-0.12,0.09-0.18,0.13c-0.06,0.03-0.13,0.05-0.19,0.06c-0.06,0.01-0.13,0.02-0.19,0.02c-0.24,0-0.41-0.06-0.53-0.17
		C9.96,2.82,9.91,2.65,9.91,2.45V1.28H9.56V0.89z"/>
	<path d="M12.42,0.89h0.43V0.79c0-0.11,0.02-0.22,0.05-0.32s0.08-0.18,0.14-0.25c0.06-0.07,0.14-0.12,0.24-0.16
		C13.38,0.02,13.49,0,13.63,0c0.19,0,0.34,0.04,0.46,0.11s0.2,0.17,0.25,0.28L14.02,0.6c-0.03-0.05-0.07-0.1-0.13-0.14
		c-0.06-0.05-0.13-0.07-0.22-0.07c-0.04,0-0.09,0.01-0.13,0.02c-0.04,0.01-0.08,0.03-0.11,0.06c-0.03,0.03-0.06,0.08-0.08,0.13
		s-0.03,0.12-0.03,0.21v0.08h0.92v0.39h-0.92v1.79h-0.48V1.28h-0.43V0.89z"/>
	<path d="M14.96,2.15c0.03,0.18,0.09,0.32,0.19,0.42c0.1,0.1,0.24,0.15,0.41,0.15c0.14,0,0.25-0.03,0.35-0.09
		c0.1-0.06,0.17-0.14,0.23-0.23l0.42,0.16c-0.08,0.17-0.21,0.31-0.38,0.41c-0.17,0.1-0.38,0.15-0.62,0.15
		c-0.18,0-0.34-0.03-0.47-0.08c-0.14-0.06-0.25-0.13-0.34-0.23c-0.09-0.1-0.16-0.22-0.21-0.36s-0.07-0.3-0.07-0.47
		s0.02-0.33,0.07-0.47s0.12-0.26,0.21-0.36c0.09-0.1,0.2-0.18,0.34-0.24c0.14-0.06,0.29-0.08,0.47-0.08c0.36,0,0.63,0.11,0.82,0.33
		c0.18,0.22,0.27,0.56,0.27,1.01H14.96z M15.56,1.19c-0.18,0-0.31,0.05-0.41,0.15c-0.1,0.1-0.16,0.24-0.19,0.42h1.21
		c-0.03-0.2-0.1-0.34-0.21-0.43S15.73,1.19,15.56,1.19z"/>
	<path d="M17.44,2.15c0.03,0.18,0.09,0.32,0.19,0.42c0.1,0.1,0.24,0.15,0.41,0.15c0.14,0,0.25-0.03,0.35-0.09
		c0.1-0.06,0.17-0.14,0.23-0.23l0.42,0.16c-0.08,0.17-0.21,0.31-0.38,0.41c-0.17,0.1-0.38,0.15-0.62,0.15
		c-0.18,0-0.34-0.03-0.47-0.08c-0.14-0.06-0.25-0.13-0.34-0.23c-0.09-0.1-0.16-0.22-0.21-0.36s-0.07-0.3-0.07-0.47
		s0.02-0.33,0.07-0.47s0.12-0.26,0.21-0.36c0.09-0.1,0.2-0.18,0.34-0.24c0.14-0.06,0.29-0.08,0.47-0.08c0.36,0,0.63,0.11,0.82,0.33
		s0.27,0.56,0.27,1.01H17.44z M18.04,1.19c-0.18,0-0.31,0.05-0.41,0.15c-0.1,0.1-0.16,0.24-0.19,0.42h1.21
		c-0.03-0.2-0.1-0.34-0.21-0.43S18.2,1.19,18.04,1.19z"/>
	<path d="M21.52,0v3.07h-0.48V2.91c-0.08,0.06-0.18,0.11-0.27,0.14c-0.1,0.03-0.19,0.05-0.29,0.05c-0.15,0-0.29-0.02-0.42-0.07
		c-0.13-0.05-0.24-0.12-0.33-0.22c-0.09-0.1-0.17-0.22-0.22-0.36c-0.05-0.14-0.08-0.31-0.08-0.5c0-0.19,0.03-0.35,0.08-0.5
		c0.05-0.14,0.13-0.26,0.22-0.36c0.09-0.1,0.2-0.17,0.33-0.22c0.13-0.05,0.27-0.07,0.42-0.07c0.11,0,0.21,0.02,0.3,0.05
		c0.1,0.03,0.18,0.08,0.26,0.13V0H21.52z M20.48,2.71c0.09,0,0.19-0.02,0.29-0.05c0.1-0.04,0.19-0.09,0.27-0.15V1.39
		c-0.07-0.06-0.15-0.11-0.25-0.15c-0.1-0.03-0.2-0.05-0.31-0.05c-0.08,0-0.16,0.02-0.23,0.05c-0.07,0.03-0.13,0.08-0.18,0.14
		c-0.05,0.06-0.09,0.14-0.12,0.24c-0.03,0.1-0.04,0.21-0.04,0.33c0,0.1,0.01,0.19,0.03,0.28s0.05,0.17,0.1,0.24s0.11,0.13,0.18,0.17
		S20.38,2.71,20.48,2.71z"/>
	<path d="M22.48,0v0.98c0.08-0.06,0.17-0.1,0.26-0.13c0.1-0.03,0.2-0.05,0.3-0.05c0.15,0,0.29,0.02,0.42,0.07
		C23.59,0.93,23.7,1,23.79,1.1c0.09,0.1,0.16,0.22,0.22,0.36c0.05,0.14,0.08,0.31,0.08,0.5c0,0.19-0.03,0.36-0.08,0.5
		c-0.05,0.14-0.13,0.26-0.22,0.36c-0.09,0.1-0.2,0.17-0.33,0.22C23.34,3.08,23.2,3.1,23.05,3.1c-0.1,0-0.2-0.02-0.3-0.05
		s-0.19-0.08-0.27-0.14v0.16H22V0H22.48z M23.04,2.71c0.11,0,0.2-0.02,0.28-0.06c0.07-0.04,0.13-0.1,0.18-0.17s0.08-0.15,0.1-0.24
		s0.03-0.19,0.03-0.28c0-0.13-0.02-0.24-0.04-0.33c-0.03-0.09-0.07-0.17-0.12-0.24c-0.05-0.06-0.12-0.11-0.19-0.14
		c-0.07-0.03-0.15-0.05-0.23-0.05c-0.11,0-0.22,0.02-0.31,0.05c-0.1,0.03-0.18,0.08-0.24,0.15V2.5c0.04,0.03,0.08,0.06,0.12,0.09
		c0.05,0.03,0.09,0.05,0.14,0.07c0.05,0.02,0.1,0.03,0.15,0.04C22.94,2.71,22.99,2.71,23.04,2.71z"/>
	<path d="M25.86,2.91c-0.09,0.06-0.19,0.1-0.3,0.13c-0.12,0.03-0.24,0.05-0.38,0.05c-0.13,0-0.25-0.02-0.34-0.05
		C24.74,3,24.66,2.96,24.59,2.9c-0.07-0.06-0.12-0.13-0.15-0.22s-0.05-0.18-0.05-0.28c0-0.13,0.03-0.25,0.1-0.36s0.17-0.19,0.3-0.26
		c0.13-0.07,0.28-0.12,0.46-0.15c0.18-0.03,0.39-0.04,0.61-0.03c0-0.06-0.01-0.12-0.03-0.17c-0.02-0.05-0.04-0.09-0.07-0.13
		c-0.03-0.03-0.08-0.06-0.14-0.08c-0.06-0.02-0.14-0.03-0.23-0.03c-0.16,0-0.29,0.02-0.4,0.06s-0.2,0.08-0.27,0.13l-0.18-0.32
		c0.05-0.03,0.1-0.06,0.16-0.09c0.06-0.03,0.13-0.06,0.21-0.08c0.08-0.02,0.16-0.04,0.25-0.06c0.09-0.02,0.19-0.02,0.3-0.02
		c0.17,0,0.31,0.02,0.42,0.07c0.11,0.05,0.2,0.11,0.27,0.18c0.07,0.08,0.11,0.16,0.14,0.26c0.03,0.1,0.04,0.19,0.04,0.29v1.46h-0.48
		V2.91z M25.25,2.7c0.04,0,0.08,0,0.13-0.01s0.1-0.02,0.16-0.04c0.05-0.02,0.11-0.04,0.17-0.07c0.06-0.02,0.11-0.06,0.16-0.09v-0.5
		c-0.14-0.02-0.27-0.02-0.39,0s-0.23,0.04-0.32,0.08C25.07,2.1,25,2.14,24.94,2.2c-0.05,0.06-0.08,0.12-0.08,0.19
		c0,0.04,0,0.08,0.02,0.11c0.01,0.04,0.03,0.07,0.06,0.1c0.03,0.03,0.07,0.05,0.12,0.07C25.11,2.69,25.17,2.7,25.25,2.7z"/>
	<path d="M27.83,2.71c0.06,0,0.12-0.01,0.18-0.03c0.06-0.02,0.11-0.04,0.16-0.07c0.05-0.03,0.09-0.06,0.13-0.1
		c0.04-0.04,0.07-0.08,0.09-0.13l0.4,0.14c-0.07,0.17-0.19,0.31-0.36,0.42c-0.16,0.11-0.37,0.16-0.61,0.16
		c-0.15,0-0.29-0.02-0.43-0.07s-0.25-0.12-0.35-0.21s-0.18-0.22-0.23-0.36c-0.06-0.14-0.09-0.31-0.09-0.51
		c0-0.19,0.03-0.36,0.09-0.51c0.06-0.14,0.13-0.26,0.23-0.36c0.1-0.09,0.21-0.16,0.34-0.21s0.27-0.07,0.42-0.07
		c0.24,0,0.44,0.05,0.6,0.16s0.28,0.24,0.35,0.41l-0.41,0.15c-0.05-0.09-0.11-0.17-0.2-0.23s-0.2-0.1-0.33-0.1
		c-0.19,0-0.34,0.06-0.45,0.19c-0.11,0.13-0.16,0.31-0.16,0.56c0,0.25,0.06,0.44,0.17,0.57C27.49,2.64,27.64,2.71,27.83,2.71z"/>
	<path d="M31.13,0.87l-1.07,0.95l1.13,1.25h-0.56l-0.88-0.97l-0.12,0.11v0.86h-0.48V0h0.48v1.7l0.95-0.83H31.13z"/>
</g>
</svg>
