<?xml version="1.0" encoding="utf-8"?>
<!-- Generator: Adobe Illustrator 23.1.0, SVG Export Plug-In . SVG Version: 6.00 Build 0)  -->
<svg version="1.1" id="Layer_1" xmlns="http://www.w3.org/2000/svg" xmlns:xlink="http://www.w3.org/1999/xlink" x="0px" y="0px"
	 viewBox="0 0 34.37 11.51" style="enable-background:new 0 0 34.37 11.51;" xml:space="preserve">
<g>
	<path d="M10.87,10.18H0V8.81h4.6V6.73h1.67v2.08h4.61V10.18z M1.4,0.42h7.66c0.23,0,0.38,0.07,0.44,0.22
		c0.06,0.15,0.05,0.31-0.03,0.5C9.33,1.46,9.05,1.87,8.62,2.38C8.19,2.89,7.62,3.42,6.89,3.97c0.29,0.17,0.59,0.33,0.91,0.5
		c0.32,0.16,0.64,0.31,0.96,0.45c0.32,0.14,0.63,0.26,0.93,0.37c0.3,0.11,0.58,0.2,0.83,0.28l-0.79,1.3
		c-0.31-0.1-0.65-0.21-1.01-0.35C8.36,6.37,8,6.22,7.63,6.05C7.26,5.88,6.9,5.7,6.54,5.51c-0.36-0.19-0.7-0.39-1.02-0.6
		c-0.6,0.38-1.27,0.73-2,1.07C2.78,6.31,1.98,6.61,1.1,6.86L0.35,5.64c0.91-0.31,1.72-0.63,2.41-0.96c0.7-0.33,1.31-0.65,1.85-0.98
		c0.54-0.32,1-0.65,1.4-0.97c0.4-0.32,0.75-0.64,1.05-0.94H1.4V0.42z"/>
	<path d="M18.64,2.15v1.31h-6.96V2.15H18.64z M15.14,3.86c0.49,0,0.92,0.07,1.3,0.21c0.38,0.14,0.69,0.34,0.95,0.59
		c0.26,0.26,0.46,0.56,0.59,0.91c0.13,0.35,0.2,0.74,0.2,1.16c0,0.42-0.07,0.81-0.2,1.16s-0.33,0.65-0.59,0.91
		c-0.26,0.25-0.58,0.45-0.95,0.59c-0.38,0.14-0.81,0.21-1.3,0.21c-0.49,0-0.92-0.07-1.3-0.21c-0.38-0.14-0.69-0.34-0.95-0.59
		c-0.26-0.25-0.45-0.55-0.58-0.91s-0.2-0.74-0.2-1.16c0-0.42,0.07-0.81,0.2-1.16c0.13-0.35,0.33-0.66,0.58-0.91
		c0.26-0.26,0.57-0.45,0.95-0.59C14.22,3.93,14.66,3.86,15.14,3.86z M17.12,0.37v1.31h-3.94V0.37H17.12z M15.14,5.22
		c-0.38,0-0.69,0.13-0.95,0.38c-0.26,0.25-0.39,0.64-0.39,1.16c0,0.5,0.13,0.89,0.38,1.15c0.26,0.26,0.58,0.4,0.96,0.4
		c0.38,0,0.71-0.13,0.97-0.38c0.26-0.25,0.4-0.64,0.4-1.17s-0.13-0.92-0.4-1.16C15.85,5.34,15.53,5.22,15.14,5.22z M21.36,4.31h1.61
		v1.37h-1.61v5.47h-1.67v-11h1.67V4.31z"/>
	<path d="M28.94,11.51c-0.5,0-0.98-0.04-1.43-0.11c-0.45-0.07-0.84-0.19-1.18-0.37c-0.34-0.17-0.61-0.4-0.8-0.68
		c-0.2-0.28-0.29-0.64-0.29-1.06c0-0.37,0.07-0.68,0.22-0.94c0.14-0.26,0.35-0.48,0.61-0.65c0.26-0.17,0.56-0.31,0.91-0.4
		c0.35-0.1,0.73-0.16,1.13-0.19V6.55h-4.58V5.18h10.85v1.37h-4.6V7.1c0.41,0.03,0.78,0.09,1.13,0.19c0.34,0.09,0.64,0.23,0.89,0.4
		c0.25,0.18,0.45,0.39,0.59,0.65c0.14,0.26,0.22,0.57,0.22,0.94c0,0.43-0.1,0.79-0.29,1.07c-0.19,0.28-0.45,0.51-0.78,0.68
		c-0.33,0.17-0.72,0.29-1.16,0.36C29.92,11.47,29.45,11.51,28.94,11.51z M28.94,4.67c-0.5,0-0.97-0.05-1.4-0.14
		c-0.43-0.1-0.8-0.24-1.12-0.44c-0.31-0.2-0.56-0.44-0.74-0.73s-0.27-0.63-0.27-1.03c0-0.39,0.09-0.73,0.27-1.03
		s0.43-0.53,0.74-0.73c0.31-0.19,0.68-0.34,1.12-0.43c0.43-0.1,0.9-0.14,1.4-0.14s0.97,0.05,1.4,0.14c0.43,0.1,0.81,0.24,1.12,0.43
		c0.32,0.19,0.56,0.43,0.74,0.73c0.18,0.29,0.27,0.63,0.27,1.03c0,0.39-0.09,0.73-0.27,1.03c-0.18,0.29-0.43,0.54-0.74,0.73
		c-0.32,0.2-0.69,0.34-1.12,0.44C29.92,4.62,29.45,4.67,28.94,4.67z M28.94,10.16c0.22,0,0.45-0.01,0.69-0.03
		c0.24-0.02,0.45-0.06,0.64-0.13s0.35-0.15,0.47-0.26c0.12-0.11,0.19-0.26,0.19-0.46c0-0.19-0.06-0.35-0.19-0.46
		c-0.12-0.12-0.28-0.21-0.47-0.27c-0.19-0.06-0.41-0.11-0.64-0.13C29.4,8.41,29.17,8.4,28.94,8.4c-0.23,0-0.47,0.01-0.71,0.03
		C28,8.45,27.78,8.49,27.58,8.56c-0.2,0.06-0.36,0.15-0.49,0.27C26.97,8.94,26.9,9.1,26.9,9.29c0,0.19,0.06,0.34,0.19,0.46
		c0.13,0.11,0.29,0.2,0.49,0.26c0.2,0.06,0.41,0.11,0.65,0.13S28.71,10.16,28.94,10.16z M28.94,3.32c0.22,0,0.45-0.02,0.67-0.05
		s0.43-0.09,0.61-0.16c0.18-0.08,0.32-0.18,0.43-0.31c0.11-0.13,0.16-0.29,0.16-0.48c0-0.19-0.05-0.35-0.16-0.48
		c-0.11-0.13-0.25-0.23-0.43-0.31c-0.18-0.08-0.38-0.13-0.61-0.16s-0.45-0.05-0.67-0.05c-0.23,0-0.46,0.02-0.68,0.05
		c-0.22,0.03-0.42,0.09-0.59,0.16c-0.18,0.08-0.32,0.18-0.43,0.31c-0.11,0.13-0.16,0.29-0.16,0.48c0,0.19,0.05,0.35,0.16,0.48
		c0.11,0.13,0.25,0.23,0.43,0.31c0.18,0.08,0.37,0.13,0.59,0.16C28.49,3.31,28.71,3.32,28.94,3.32z"/>
</g>
</svg>
