<?xml version="1.0" encoding="utf-8"?>
<!-- Generator: Adobe Illustrator 23.1.0, SVG Export Plug-In . SVG Version: 6.00 Build 0)  -->
<svg version="1.1" id="Layer_1" xmlns="http://www.w3.org/2000/svg" xmlns:xlink="http://www.w3.org/1999/xlink" x="0px" y="0px"
	 viewBox="0 0 28.83 3.1" style="enable-background:new 0 0 28.83 3.1;" xml:space="preserve">
<g>
	<g>
		<path d="M2.19,0l0.58,2.15L3.3,0h0.48L2.97,3.07H2.59L1.9,0.53L1.21,3.07H0.83L0,0h0.48l0.54,2.15L1.6,0H2.19z"/>
		<path d="M5.34,2.91c-0.09,0.06-0.19,0.1-0.3,0.13C4.92,3.07,4.8,3.09,4.66,3.09c-0.13,0-0.25-0.02-0.34-0.05
			C4.22,3.01,4.14,2.96,4.07,2.9C4,2.84,3.95,2.76,3.92,2.68S3.87,2.5,3.87,2.39c0-0.13,0.03-0.25,0.1-0.36
			c0.07-0.11,0.17-0.19,0.3-0.26C4.39,1.7,4.55,1.65,4.73,1.62S5.11,1.58,5.34,1.6c0-0.06-0.01-0.12-0.03-0.17
			C5.3,1.38,5.27,1.33,5.24,1.3C5.2,1.26,5.16,1.24,5.1,1.22C5.04,1.2,4.96,1.19,4.87,1.19c-0.16,0-0.29,0.02-0.4,0.06
			C4.37,1.29,4.28,1.33,4.2,1.38L4.03,1.06c0.05-0.03,0.1-0.06,0.16-0.09C4.25,0.95,4.32,0.92,4.4,0.89
			c0.08-0.02,0.16-0.04,0.25-0.06c0.09-0.02,0.19-0.02,0.3-0.02c0.17,0,0.31,0.02,0.42,0.07c0.11,0.05,0.2,0.11,0.27,0.18
			c0.07,0.08,0.11,0.16,0.14,0.26c0.03,0.1,0.04,0.19,0.04,0.29v1.46H5.34V2.91z M4.73,2.7c0.04,0,0.08,0,0.13-0.01
			c0.05-0.01,0.1-0.02,0.16-0.04c0.06-0.02,0.11-0.04,0.17-0.07C5.24,2.56,5.3,2.53,5.34,2.49v-0.5c-0.14-0.02-0.27-0.02-0.39,0
			C4.83,2,4.73,2.02,4.64,2.06S4.48,2.14,4.43,2.2C4.37,2.26,4.35,2.32,4.35,2.39c0,0.04,0.01,0.08,0.02,0.11s0.03,0.07,0.06,0.1
			c0.03,0.03,0.07,0.05,0.12,0.07C4.59,2.69,4.65,2.7,4.73,2.7z"/>
		<path d="M6.78,0.87v0.17c0.08-0.07,0.18-0.13,0.28-0.17S7.28,0.8,7.4,0.8c0.11,0,0.21,0.01,0.3,0.04
			c0.09,0.03,0.18,0.07,0.25,0.13c0.07,0.06,0.12,0.15,0.16,0.25s0.06,0.23,0.06,0.38v1.45H7.69V1.65c0-0.07,0-0.13-0.01-0.19
			S7.65,1.36,7.62,1.31c-0.03-0.04-0.06-0.07-0.11-0.1c-0.05-0.02-0.1-0.04-0.18-0.04c-0.12,0-0.23,0.03-0.32,0.08
			C6.92,1.31,6.84,1.37,6.78,1.45v1.62H6.3v-2.2H6.78z"/>
		<path d="M9.14,0.87v0.17c0.08-0.07,0.18-0.13,0.28-0.17S9.63,0.8,9.75,0.8c0.11,0,0.21,0.01,0.3,0.04
			c0.09,0.03,0.18,0.07,0.25,0.13c0.07,0.06,0.12,0.15,0.16,0.25s0.06,0.23,0.06,0.38v1.45h-0.48V1.65c0-0.07,0-0.13-0.01-0.19
			S10,1.36,9.97,1.31c-0.03-0.04-0.06-0.07-0.11-0.1c-0.05-0.02-0.1-0.04-0.18-0.04c-0.12,0-0.23,0.03-0.32,0.08
			C9.27,1.31,9.2,1.37,9.14,1.45v1.62H8.65v-2.2H9.14z"/>
		<path d="M12.4,2.91c-0.09,0.06-0.19,0.1-0.3,0.13c-0.12,0.03-0.24,0.05-0.38,0.05c-0.13,0-0.25-0.02-0.34-0.05
			c-0.1-0.03-0.18-0.08-0.25-0.14c-0.07-0.06-0.12-0.14-0.15-0.22s-0.05-0.18-0.05-0.28c0-0.13,0.03-0.25,0.1-0.36
			c0.07-0.11,0.17-0.19,0.3-0.26c0.13-0.07,0.28-0.12,0.46-0.15s0.39-0.04,0.61-0.03c0-0.06-0.01-0.12-0.03-0.17
			c-0.02-0.05-0.04-0.09-0.07-0.13c-0.03-0.03-0.08-0.06-0.14-0.08c-0.06-0.02-0.14-0.03-0.23-0.03c-0.16,0-0.29,0.02-0.4,0.06
			c-0.11,0.04-0.2,0.08-0.27,0.13l-0.18-0.32c0.05-0.03,0.1-0.06,0.16-0.09c0.06-0.03,0.13-0.06,0.21-0.08
			c0.08-0.02,0.16-0.04,0.25-0.06C11.8,0.82,11.9,0.81,12,0.81c0.17,0,0.31,0.02,0.42,0.07c0.11,0.05,0.2,0.11,0.27,0.18
			c0.07,0.08,0.11,0.16,0.14,0.26c0.03,0.1,0.04,0.19,0.04,0.29v1.46H12.4V2.91z M11.79,2.7c0.04,0,0.08,0,0.13-0.01
			c0.05-0.01,0.1-0.02,0.16-0.04c0.06-0.02,0.11-0.04,0.17-0.07c0.06-0.02,0.11-0.06,0.16-0.09v-0.5c-0.14-0.02-0.27-0.02-0.39,0
			C11.89,2,11.78,2.02,11.7,2.06s-0.16,0.08-0.21,0.14c-0.05,0.06-0.08,0.12-0.08,0.19c0,0.04,0.01,0.08,0.02,0.11
			s0.03,0.07,0.06,0.1c0.03,0.03,0.07,0.05,0.12,0.07C11.65,2.69,11.71,2.7,11.79,2.7z"/>
		<path d="M13.84,0v0.98c0.08-0.06,0.17-0.1,0.26-0.13c0.1-0.03,0.2-0.05,0.3-0.05c0.15,0,0.29,0.02,0.42,0.07
			C14.95,0.93,15.06,1,15.15,1.1c0.09,0.1,0.16,0.22,0.22,0.36c0.05,0.14,0.08,0.31,0.08,0.5c0,0.19-0.03,0.36-0.08,0.5
			s-0.13,0.26-0.22,0.36c-0.09,0.1-0.2,0.17-0.33,0.22C14.7,3.08,14.56,3.1,14.41,3.1c-0.1,0-0.2-0.02-0.3-0.05
			c-0.1-0.03-0.19-0.08-0.27-0.14v0.16h-0.48V0H13.84z M14.4,2.71c0.11,0,0.2-0.02,0.27-0.06c0.07-0.04,0.13-0.1,0.18-0.17
			c0.05-0.07,0.08-0.15,0.1-0.24c0.02-0.09,0.03-0.19,0.03-0.28c0-0.13-0.02-0.24-0.04-0.33c-0.03-0.09-0.07-0.17-0.12-0.24
			c-0.05-0.06-0.11-0.11-0.19-0.14s-0.15-0.05-0.23-0.05c-0.11,0-0.22,0.02-0.31,0.05c-0.1,0.03-0.18,0.08-0.24,0.15V2.5
			c0.04,0.03,0.08,0.06,0.12,0.09c0.05,0.03,0.09,0.05,0.14,0.07c0.05,0.02,0.1,0.03,0.15,0.04C14.3,2.71,14.35,2.71,14.4,2.71z"/>
		<path d="M16.23,2.15c0.03,0.18,0.09,0.32,0.19,0.42c0.1,0.1,0.24,0.15,0.41,0.15c0.13,0,0.25-0.03,0.35-0.09
			c0.1-0.06,0.17-0.14,0.23-0.23l0.42,0.15c-0.08,0.17-0.21,0.31-0.38,0.41c-0.17,0.1-0.38,0.15-0.62,0.15
			c-0.18,0-0.34-0.03-0.47-0.08c-0.14-0.06-0.25-0.13-0.34-0.23c-0.09-0.1-0.16-0.22-0.21-0.36c-0.05-0.14-0.07-0.3-0.07-0.47
			s0.02-0.33,0.07-0.47c0.05-0.14,0.12-0.26,0.21-0.36c0.09-0.1,0.2-0.18,0.34-0.24c0.14-0.06,0.29-0.08,0.47-0.08
			c0.36,0,0.63,0.11,0.82,0.33c0.18,0.22,0.27,0.56,0.27,1.01H16.23z M16.82,1.19c-0.18,0-0.31,0.05-0.41,0.15
			c-0.1,0.1-0.16,0.24-0.19,0.42h1.21c-0.03-0.19-0.1-0.34-0.21-0.43C17.12,1.24,16.99,1.19,16.82,1.19z"/>
		<path d="M19.74,0.87v0.17c0.08-0.07,0.18-0.13,0.28-0.17s0.22-0.06,0.33-0.06c0.11,0,0.21,0.01,0.3,0.04
			c0.09,0.03,0.18,0.07,0.25,0.13c0.07,0.06,0.12,0.15,0.16,0.25s0.06,0.23,0.06,0.38v1.45h-0.48V1.65c0-0.07,0-0.13-0.01-0.19
			c-0.01-0.06-0.03-0.11-0.05-0.15c-0.03-0.04-0.06-0.07-0.11-0.1s-0.1-0.04-0.17-0.04c-0.12,0-0.23,0.03-0.33,0.08
			c-0.09,0.05-0.17,0.12-0.23,0.19v1.62h-0.48v-2.2H19.74z"/>
		<path d="M22.69,0.8c0.16,0,0.32,0.03,0.46,0.08S23.42,1,23.52,1.1c0.1,0.1,0.19,0.22,0.25,0.36c0.06,0.14,0.09,0.31,0.09,0.49
			s-0.03,0.35-0.09,0.49c-0.06,0.14-0.14,0.26-0.25,0.36c-0.11,0.1-0.23,0.17-0.38,0.22S22.86,3.1,22.69,3.1
			c-0.16,0-0.31-0.02-0.46-0.07c-0.14-0.05-0.26-0.12-0.37-0.22c-0.11-0.1-0.19-0.22-0.25-0.36s-0.09-0.31-0.09-0.49
			s0.03-0.35,0.09-0.49c0.06-0.14,0.14-0.26,0.25-0.36c0.11-0.1,0.23-0.17,0.37-0.22C22.38,0.83,22.53,0.8,22.69,0.8z M22.69,1.19
			c-0.09,0-0.17,0.01-0.25,0.04c-0.08,0.03-0.15,0.07-0.21,0.13c-0.06,0.06-0.12,0.14-0.15,0.24c-0.04,0.1-0.06,0.21-0.06,0.35
			c0,0.14,0.02,0.25,0.06,0.35c0.04,0.1,0.09,0.17,0.15,0.23c0.06,0.06,0.13,0.11,0.21,0.13s0.17,0.04,0.25,0.04
			s0.17-0.01,0.25-0.04c0.08-0.03,0.16-0.07,0.22-0.13c0.06-0.06,0.12-0.14,0.15-0.23s0.06-0.21,0.06-0.35
			c0-0.14-0.02-0.25-0.06-0.35s-0.09-0.18-0.15-0.24c-0.07-0.06-0.14-0.1-0.22-0.13C22.86,1.21,22.78,1.19,22.69,1.19z"/>
		<path d="M26.27,0v3.07h-0.48V2.91c-0.08,0.06-0.18,0.11-0.27,0.14s-0.2,0.05-0.29,0.05c-0.15,0-0.29-0.02-0.42-0.07
			s-0.24-0.12-0.33-0.22c-0.09-0.1-0.17-0.22-0.22-0.36s-0.08-0.31-0.08-0.5c0-0.19,0.03-0.35,0.08-0.5
			c0.05-0.14,0.13-0.26,0.22-0.36c0.09-0.1,0.2-0.17,0.33-0.22s0.27-0.07,0.42-0.07c0.11,0,0.21,0.02,0.3,0.05
			c0.1,0.03,0.18,0.08,0.26,0.13V0H26.27z M25.23,2.71c0.09,0,0.19-0.02,0.29-0.05c0.1-0.04,0.19-0.09,0.27-0.15V1.39
			c-0.07-0.06-0.15-0.11-0.25-0.15c-0.1-0.03-0.2-0.05-0.31-0.05c-0.08,0-0.16,0.02-0.23,0.05s-0.13,0.08-0.18,0.14
			c-0.05,0.06-0.09,0.14-0.12,0.24c-0.03,0.1-0.04,0.21-0.04,0.33c0,0.1,0.01,0.19,0.03,0.28c0.02,0.09,0.05,0.17,0.1,0.24
			c0.04,0.07,0.1,0.13,0.18,0.17C25.03,2.69,25.12,2.71,25.23,2.71z"/>
		<path d="M27.15,2.15c0.03,0.18,0.09,0.32,0.19,0.42c0.1,0.1,0.24,0.15,0.41,0.15c0.13,0,0.25-0.03,0.35-0.09
			c0.1-0.06,0.17-0.14,0.23-0.23l0.42,0.15c-0.08,0.17-0.21,0.31-0.38,0.41c-0.17,0.1-0.38,0.15-0.62,0.15
			c-0.18,0-0.34-0.03-0.47-0.08c-0.14-0.06-0.25-0.13-0.34-0.23c-0.09-0.1-0.16-0.22-0.21-0.36c-0.05-0.14-0.07-0.3-0.07-0.47
			s0.02-0.33,0.07-0.47c0.05-0.14,0.12-0.26,0.21-0.36c0.09-0.1,0.2-0.18,0.34-0.24c0.14-0.06,0.29-0.08,0.47-0.08
			c0.36,0,0.63,0.11,0.82,0.33c0.18,0.22,0.27,0.56,0.27,1.01H27.15z M27.75,1.19c-0.18,0-0.31,0.05-0.41,0.15
			c-0.1,0.1-0.16,0.24-0.19,0.42h1.21c-0.03-0.19-0.1-0.34-0.21-0.43C28.04,1.24,27.91,1.19,27.75,1.19z"/>
	</g>
</g>
</svg>
